<svg width="431" height="87" viewBox="0 0 431 87" fill="none" xmlns="http://www.w3.org/2000/svg">
<g clip-path="url(#clip0_54_2)">
<rect width="431" height="87" fill="#252900"/>
<path d="M21.3435 1.824C22.3675 1.824 24.1595 1.824 26.7195 1.824C29.3648 1.73867 32.3515 1.65333 35.6795 1.56799C39.0928 1.48266 42.5488 1.43999 46.0475 1.43999C49.5462 1.35466 52.7035 1.26933 55.5195 1.184C58.4208 1.09867 60.5968 1.056 62.0475 1.056C62.4742 4.21333 63.0288 7.37067 63.7115 10.528C64.3942 13.6853 65.0342 16.672 65.6315 19.488C65.4608 19.6587 65.0342 19.8293 64.3515 20C63.6688 20.0853 63.1142 20.128 62.6875 20.128C61.6635 20.128 61.0235 19.7867 60.7675 19.104C59.4022 15.6053 57.7382 12.6613 55.7755 10.272C53.8982 7.79733 51.0395 6.56 47.1995 6.56H36.8315C35.4662 6.56 34.1435 6.64533 32.8635 6.81599C31.6688 6.90133 30.9008 7.28533 30.5595 7.96799C30.3035 8.65066 30.1328 9.504 30.0475 10.528C30.0475 11.552 30.0475 12.7467 30.0475 14.112C30.0475 14.368 30.0475 14.624 30.0475 14.88C30.0475 15.136 30.0475 15.392 30.0475 15.648V38.048C30.0475 38.3893 30.6022 38.688 31.7115 38.944C32.8208 39.2 34.0582 39.328 35.4235 39.328H41.9515C44.4262 39.328 46.3035 39.1147 47.5835 38.688C48.9488 38.2613 50.0155 37.408 50.7835 36.128C51.5515 34.848 52.2768 33.0133 52.9595 30.624C53.1302 29.9413 53.6422 29.6 54.4955 29.6C55.6048 29.6 56.3728 29.8133 56.7995 30.24V54.304C56.7142 54.3893 56.4155 54.4747 55.9035 54.56C55.4768 54.6453 55.0502 54.688 54.6235 54.688C53.5142 54.688 52.9168 54.3893 52.8315 53.792C52.0635 50.8053 51.2955 48.8427 50.5275 47.904C49.7595 46.9653 49.0768 46.368 48.4795 46.112C47.0288 45.5147 43.8715 45.216 39.0075 45.216C37.8982 45.216 36.6182 45.2587 35.1675 45.344C33.8022 45.4293 32.6075 45.6 31.5835 45.856C30.5595 46.112 30.0475 46.496 30.0475 47.008V66.336C30.0475 66.336 30.0475 66.4213 30.0475 66.592C30.0475 67.0187 30.0475 67.872 30.0475 69.152C30.0475 70.3467 30.0902 71.6267 30.1755 72.992C30.3462 74.3573 30.6022 75.424 30.9435 76.192C31.3702 77.0453 32.4368 77.6853 34.1435 78.112C35.8502 78.5387 37.5142 78.752 39.1355 78.752H47.3275C49.7168 78.752 51.8928 78.4107 53.8555 77.728C55.9035 77.0453 57.6102 76.0213 58.9755 74.656C60.3408 73.2907 61.5355 71.6693 62.5595 69.792C63.5835 67.9147 64.6502 65.568 65.7595 62.752C65.9302 62.24 66.4848 61.984 67.4235 61.984C68.1062 61.984 68.8742 62.0693 69.7275 62.24C70.5808 62.4107 71.0928 62.5813 71.2635 62.752C70.4955 64.9707 69.6422 67.4027 68.7035 70.048C67.7648 72.6933 66.9115 75.2533 66.1435 77.728C65.3755 80.2027 64.8208 82.3787 64.4795 84.256C63.6262 84.256 61.6635 84.256 58.5915 84.256C55.5195 84.256 51.8075 84.256 47.4555 84.256C43.1035 84.256 38.5382 84.256 33.7595 84.256C29.0662 84.256 24.5435 84.256 20.1915 84.256C15.9248 84.256 12.2555 84.256 9.1835 84.256C6.19683 84.3413 4.27683 84.384 3.4235 84.384C3.1675 83.9573 2.99683 83.1893 2.9115 82.08C2.9115 80.9707 3.08217 80.2027 3.4235 79.776C4.02083 79.6907 4.91683 79.6053 6.1115 79.52C7.30617 79.3493 8.45817 79.136 9.5675 78.88C10.6768 78.5387 11.3168 78.112 11.4875 77.6C11.9995 76.32 12.2982 74.6987 12.3835 72.736C12.4688 70.7733 12.5115 68.4693 12.5115 65.824V19.872C12.5115 17.1413 12.4688 14.8373 12.3835 12.96C12.2982 10.9973 11.9995 9.376 11.4875 8.09599C11.3168 7.49866 10.6768 7.072 9.5675 6.81599C8.45817 6.56 7.30617 6.38933 6.1115 6.30399C4.91683 6.21866 4.02083 6.17599 3.4235 6.17599C3.08217 5.74933 2.9115 4.93866 2.9115 3.744C2.99683 2.54933 3.1675 1.78133 3.4235 1.43999C6.2395 1.61066 9.26883 1.73867 12.5115 1.824C15.7542 1.824 18.6982 1.824 21.3435 1.824ZM105.173 66.336C105.173 66.336 105.173 66.4213 105.173 66.592C105.173 67.0187 105.173 67.872 105.173 69.152C105.173 70.3467 105.215 71.6267 105.301 72.992C105.471 74.3573 105.727 75.424 106.069 76.192C106.495 77.0453 107.562 77.6853 109.269 78.112C110.975 78.5387 112.639 78.752 114.261 78.752H122.453C124.842 78.752 127.018 78.4107 128.981 77.728C131.029 77.0453 132.735 76.0213 134.101 74.656C135.466 73.2907 136.661 71.6693 137.685 69.792C138.709 67.9147 139.775 65.568 140.885 62.752C141.055 62.24 141.61 61.984 142.549 61.984C143.231 61.984 143.999 62.0693 144.853 62.24C145.706 62.4107 146.218 62.5813 146.389 62.752C145.621 64.9707 144.767 67.4027 143.829 70.048C142.89 72.6933 142.037 75.2533 141.269 77.728C140.501 80.2027 139.946 82.3787 139.604 84.256H96.4685C92.0312 84.256 88.1485 84.256 84.8205 84.256C81.4925 84.3413 79.4018 84.384 78.5485 84.384C78.2925 83.9573 78.1218 83.1893 78.0365 82.08C78.0365 80.9707 78.2072 80.2027 78.5485 79.776C79.1458 79.6907 80.0418 79.6053 81.2365 79.52C82.4312 79.3493 83.5832 79.136 84.6925 78.88C85.8018 78.5387 86.4418 78.112 86.6125 77.6C87.1245 76.32 87.4232 74.6987 87.5085 72.736C87.5938 70.7733 87.6365 68.4693 87.6365 65.824V19.872C87.6365 17.1413 87.5938 14.8373 87.5085 12.96C87.4232 10.9973 87.1245 9.376 86.6125 8.09599C86.4418 7.49866 85.8018 7.072 84.6925 6.81599C83.5832 6.47466 82.4312 6.26133 81.2365 6.17599C80.0418 6.00533 79.1458 5.92 78.5485 5.92C78.2072 5.49333 78.0365 4.72533 78.0365 3.616C78.1218 2.42133 78.2925 1.65333 78.5485 1.312C81.0232 1.568 83.9672 1.78133 87.3805 1.952C90.7938 2.03733 93.8232 2.07999 96.4685 2.07999C99.1138 2.07999 102.101 2.03733 105.429 1.952C108.842 1.78133 111.743 1.568 114.133 1.312C114.389 1.65333 114.517 2.42133 114.517 3.616C114.602 4.72533 114.474 5.49333 114.133 5.92C113.621 5.92 112.725 6.00533 111.444 6.17599C110.25 6.26133 109.098 6.47466 107.989 6.81599C106.965 7.072 106.325 7.49866 106.069 8.09599C105.642 9.20533 105.386 10.6133 105.301 12.32C105.215 14.0267 105.173 15.9893 105.173 18.208C105.173 18.464 105.173 18.7627 105.173 19.104C105.173 19.36 105.173 19.616 105.173 19.872V66.336ZM157.964 67.232L184.588 6.048C185.014 5.19466 185.697 4.21333 186.636 3.104C187.66 1.90933 188.513 1.312 189.196 1.312C190.646 1.312 191.542 1.568 191.884 2.07999L217.484 65.44C218.337 67.3173 218.977 68.9813 219.404 70.432C219.83 71.7973 220.342 73.1627 220.94 74.528C221.708 76.2347 222.774 77.472 224.14 78.24C225.59 79.008 226.956 79.4773 228.236 79.648C229.601 79.8187 230.454 79.904 230.796 79.904C231.137 80.5013 231.308 81.3547 231.308 82.464C231.393 83.5733 231.308 84.256 231.052 84.512C228.577 84.3413 225.846 84.128 222.86 83.872C219.873 83.616 217.014 83.488 214.284 83.488C212.406 83.488 210.273 83.5733 207.884 83.744C205.494 83.8293 203.19 83.9573 200.972 84.128C198.838 84.2987 197.004 84.4267 195.468 84.512C195.297 84.256 195.169 83.7867 195.084 83.104C194.998 82.336 194.998 81.6107 195.084 80.928C195.169 80.2453 195.297 79.904 195.468 79.904C196.577 79.904 197.857 79.7333 199.308 79.392C200.844 78.9653 202.038 78.368 202.892 77.6C203.574 77.0027 203.916 76.32 203.916 75.552C203.916 75.296 203.66 74.528 203.148 73.248C202.636 71.8827 201.996 70.2613 201.228 68.384C200.545 66.5067 199.82 64.672 199.052 62.88C198.369 61.0027 197.772 59.4667 197.26 58.272C196.748 57.0773 196.492 56.48 196.492 56.48C196.492 56.48 196.364 56.3947 196.108 56.224C195.937 56.0533 195.766 55.968 195.596 55.968C193.804 55.8827 192.054 55.84 190.348 55.84C188.726 55.84 187.233 55.84 185.868 55.84C185.441 55.84 185.014 55.84 184.588 55.84C184.246 55.84 183.905 55.84 183.564 55.84C181.004 55.84 178.742 55.84 176.78 55.84C174.902 55.84 172.854 55.8827 170.636 55.968C170.294 55.968 169.996 56.1813 169.74 56.608C169.74 56.608 169.441 57.248 168.844 58.528C168.332 59.808 167.734 61.2587 167.052 62.88C166.369 64.5013 165.772 65.9093 165.26 67.104C164.662 68.64 164.022 70.3467 163.34 72.224C162.742 74.1013 162.444 75.2533 162.444 75.68C162.444 76.704 163.169 77.5573 164.62 78.24C166.07 78.8373 167.564 79.264 169.1 79.52C170.721 79.776 171.702 79.904 172.044 79.904C172.47 80.3307 172.641 81.1413 172.556 82.336C172.47 83.5307 172.342 84.256 172.172 84.512C170.038 84.256 167.948 84.0427 165.9 83.872C163.852 83.616 161.462 83.488 158.732 83.488C155.83 83.488 153.356 83.616 151.308 83.872C149.345 84.0427 147.254 84.256 145.035 84.512C144.779 84.256 144.609 83.616 144.523 82.592C144.438 81.568 144.523 80.7147 144.779 80.032C145.291 80.032 146.145 79.8613 147.34 79.52C148.62 79.0933 149.857 78.5813 151.052 77.984C152.332 77.3867 153.185 76.7467 153.612 76.064C154.721 74.3573 155.532 72.9067 156.044 71.712C156.556 70.432 157.196 68.9387 157.964 67.232ZM183.052 24.48L172.428 49.056C172.428 49.056 172.428 49.1413 172.428 49.312C172.513 49.3973 172.598 49.44 172.684 49.44C173.964 49.5253 175.67 49.6107 177.804 49.696C179.937 49.7813 181.686 49.824 183.052 49.824C185.014 49.824 186.678 49.824 188.044 49.824C189.494 49.7387 191.158 49.6533 193.036 49.568C193.206 49.568 193.292 49.4827 193.292 49.312C193.377 49.1413 193.42 49.056 193.42 49.056L183.052 24.48ZM253.219 2.07999C255.864 2.07999 258.851 2.03733 262.179 1.952C265.592 1.78133 268.493 1.568 270.883 1.312C271.139 1.65333 271.267 2.42133 271.267 3.616C271.352 4.72533 271.224 5.49333 270.883 5.92C270.371 5.92 269.475 6.00533 268.194 6.17599C267 6.26133 265.848 6.47466 264.739 6.81599C263.715 7.072 263.075 7.49866 262.819 8.09599C262.392 9.20533 262.136 10.6133 262.051 12.32C261.965 14.0267 261.923 15.9893 261.923 18.208C261.923 18.464 261.923 18.7627 261.923 19.104C261.923 19.36 261.923 19.616 261.923 19.872V65.824C261.923 66.08 261.923 66.3787 261.923 66.72C261.923 66.976 261.923 67.232 261.923 67.488C261.923 69.7067 261.965 71.6693 262.051 73.376C262.136 75.0827 262.392 76.4907 262.819 77.6C263.075 78.112 263.715 78.5387 264.739 78.88C265.848 79.2213 267 79.4773 268.194 79.648C269.475 79.7333 270.371 79.8187 270.883 79.904C271.224 80.3307 271.352 81.0987 271.267 82.208C271.267 83.3173 271.139 84.0853 270.883 84.512C268.493 84.256 265.549 84.0427 262.051 83.872C258.637 83.7013 255.608 83.616 252.963 83.616C250.317 83.616 247.331 83.7013 244.003 83.872C240.675 84.0427 237.773 84.256 235.299 84.512C235.043 84.0853 234.872 83.3173 234.786 82.208C234.786 81.0987 234.957 80.3307 235.299 79.904C235.896 79.8187 236.792 79.7333 237.987 79.648C239.181 79.4773 240.333 79.2213 241.443 78.88C242.552 78.5387 243.192 78.112 243.363 77.6C243.875 76.32 244.173 74.6987 244.259 72.736C244.344 70.7733 244.387 68.4693 244.387 65.824V19.872C244.387 17.1413 244.344 14.8373 244.259 12.96C244.173 10.9973 243.875 9.376 243.363 8.09599C243.192 7.49866 242.552 7.072 241.443 6.81599C240.333 6.47466 239.181 6.26133 237.987 6.17599C236.792 6.00533 235.896 5.92 235.299 5.92C234.957 5.49333 234.786 4.72533 234.786 3.616C234.872 2.42133 235.043 1.65333 235.299 1.312C237.773 1.568 240.717 1.78133 244.131 1.952C247.544 2.03733 250.573 2.07999 253.219 2.07999ZM321.801 0.671997C327.347 0.671997 332.638 1.78133 337.673 4C342.793 6.13333 347.315 9.16266 351.241 13.088C355.251 16.928 358.409 21.408 360.713 26.528C363.102 31.648 364.297 37.152 364.297 43.04C364.297 48.928 363.102 54.432 360.713 59.552C358.409 64.5867 355.251 69.0667 351.241 72.992C347.315 76.832 342.793 79.8613 337.673 82.08C332.638 84.2133 327.347 85.28 321.801 85.28C316.339 85.28 311.049 84.2133 305.929 82.08C300.809 79.8613 296.243 76.832 292.233 72.992C288.307 69.0667 285.15 64.5867 282.76 59.552C280.457 54.432 279.305 48.928 279.305 43.04C279.305 37.152 280.457 31.648 282.76 26.528C285.15 21.408 288.307 16.928 292.233 13.088C296.243 9.16266 300.809 6.13333 305.929 4C311.049 1.78133 316.339 0.671997 321.801 0.671997ZM318.857 6.048C315.187 6.048 312.073 7.02933 309.513 8.992C307.038 10.9547 305.033 13.5573 303.497 16.8C302.046 19.9573 300.979 23.456 300.297 27.296C299.614 31.136 299.273 34.9333 299.273 38.688C299.273 43.4667 299.699 48.288 300.553 53.152C301.491 57.9307 302.942 62.368 304.905 66.464C306.867 70.4747 309.427 73.7173 312.585 76.192C315.827 78.6667 319.795 79.904 324.489 79.904C328.243 79.904 331.358 78.9653 333.833 77.088C336.393 75.1253 338.441 72.5653 339.977 69.408C341.513 66.2507 342.622 62.752 343.305 58.912C343.987 55.072 344.329 51.2747 344.329 47.52C344.329 42.7413 343.859 37.92 342.921 33.056C342.067 28.192 340.617 23.712 338.569 19.616C336.606 15.52 334.003 12.2347 330.761 9.75999C327.518 7.28533 323.55 6.048 318.857 6.048ZM402.721 0.287994C406.475 0.287994 409.931 0.671995 413.089 1.43999C416.331 2.12266 419.873 2.89066 423.713 3.744C424.054 7.072 424.31 10.4 424.481 13.728C424.737 17.056 424.95 20.64 425.121 24.48C424.779 24.992 424.31 25.248 423.713 25.248C423.713 25.248 423.67 25.248 423.585 25.248C423.243 25.248 422.561 25.248 421.537 25.248C420.598 25.1627 420.086 24.864 420.001 24.352C419.745 22.56 419.19 20.5973 418.337 18.464C417.483 16.3307 416.331 14.2827 414.881 12.32C413.43 10.3573 411.723 8.736 409.761 7.45599C407.883 6.17599 405.75 5.536 403.361 5.536C401.739 5.536 400.118 5.87733 398.497 6.56C396.875 7.15733 395.51 8.26666 394.401 9.88799C393.291 11.424 392.737 13.6 392.737 16.416C392.737 18.976 393.718 21.4933 395.681 23.968C397.643 26.3573 399.99 28.6187 402.721 30.752C405.537 32.8 408.225 34.6773 410.785 36.384C413.515 38.176 416.289 40.1387 419.105 42.272C422.006 44.32 424.395 46.9227 426.273 50.08C428.235 53.152 429.217 57.1627 429.217 62.112C429.217 66.6347 427.894 70.6453 425.249 74.144C422.603 77.6427 419.19 80.3733 415.009 82.336C410.913 84.2987 406.561 85.28 401.953 85.28C398.283 85.28 394.315 84.9387 390.049 84.256C385.867 83.5733 381.899 82.8053 378.145 81.952C377.718 80.0747 377.291 77.6853 376.865 74.784C376.438 71.8827 376.054 69.1093 375.713 66.464C375.457 63.7333 375.286 61.8133 375.201 60.704C375.457 60.2773 376.011 59.8933 376.865 59.552C377.803 59.2107 378.443 59.04 378.785 59.04C379.809 59.04 380.363 59.3387 380.449 59.936C380.705 61.6427 381.387 63.648 382.497 65.952C383.606 68.1707 385.014 70.3893 386.721 72.608C388.513 74.7413 390.561 76.5333 392.865 77.984C395.254 79.3493 397.857 80.032 400.673 80.032C403.915 80.032 406.731 79.136 409.121 77.344C411.595 75.4667 412.833 72.3093 412.833 67.872C412.833 65.6533 412.15 63.5627 410.785 61.6C409.505 59.552 407.883 57.6747 405.921 55.968C403.958 54.2613 401.91 52.6827 399.777 51.232C397.643 49.7813 395.809 48.544 394.273 47.52C391.286 45.472 388.385 43.3813 385.569 41.248C382.753 39.1147 380.449 36.5973 378.657 33.696C376.95 30.7947 376.097 27.168 376.097 22.816C376.097 18.464 377.419 14.624 380.065 11.296C382.71 7.88266 386.081 5.19466 390.177 3.23199C394.273 1.26933 398.454 0.287994 402.721 0.287994Z" fill="#FCFDE7"/>
</g>
<defs>
<clipPath id="clip0_54_2">
<rect width="431" height="87" fill="white"/>
</clipPath>
</defs>
</svg>
